<svg xmlns="http://www.w3.org/2000/svg" xmlns:xlink="http://www.w3.org/1999/xlink" width="1161" zoomAndPan="magnify" viewBox="0 0 870.75 944.999993" height="1260" preserveAspectRatio="xMidYMid meet" version="1.0"><defs><clipPath id="fafc7f1445"><path d="M 187.628906 243.265625 L 646.628906 243.265625 L 646.628906 702.265625 L 187.628906 702.265625 Z M 187.628906 243.265625 " clip-rule="nonzero"/></clipPath><clipPath id="8909f4be30"><path d="M 218 75.195312 L 605 75.195312 L 605 569 L 218 569 Z M 218 75.195312 " clip-rule="nonzero"/></clipPath><clipPath id="eb88e0cd77"><path d="M 77 249 L 794 249 L 794 870.195312 L 77 870.195312 Z M 77 249 " clip-rule="nonzero"/></clipPath></defs><g clip-path="url(#fafc7f1445)"><path fill="#505256" d="M 417.125 253.769531 C 296.375 253.769531 198.132812 352.011719 198.132812 472.765625 C 198.132812 593.519531 296.375 691.761719 417.125 691.761719 C 537.882812 691.761719 636.125 593.519531 636.125 472.765625 C 636.125 352.011719 537.882812 253.769531 417.125 253.769531 Z M 417.125 702.269531 C 290.578125 702.269531 187.621094 599.3125 187.621094 472.765625 C 187.621094 346.214844 290.578125 243.261719 417.125 243.261719 C 543.675781 243.261719 646.632812 346.214844 646.632812 472.765625 C 646.632812 599.3125 543.675781 702.269531 417.125 702.269531 " fill-opacity="1" fill-rule="nonzero"/></g><path fill="#505256" d="M 415.542969 594.441406 C 416.285156 588.40625 427.972656 579.195312 445.054688 589.765625 C 455.507812 596.367188 471.957031 606.726562 474.210938 596.644531 C 475.171875 592.347656 472.011719 587.292969 465.40625 587.84375 C 471.183594 585.089844 484.972656 587.789062 479.4375 603.242188 C 474.011719 618.378906 445.421875 615.90625 433.78125 612.59375 C 420.851562 608.921875 414.519531 602.777344 415.542969 594.441406 " fill-opacity="1" fill-rule="nonzero"/><path fill="#505256" d="M 415.523438 594.441406 C 414.78125 588.40625 403.09375 579.195312 386.007812 589.765625 C 375.558594 596.367188 359.109375 606.726562 356.855469 596.644531 C 355.894531 592.347656 359.054688 587.292969 365.65625 587.84375 C 359.878906 585.089844 346.089844 587.789062 351.628906 603.242188 C 357.050781 618.378906 385.640625 615.90625 397.285156 612.59375 C 410.210938 608.921875 416.542969 602.777344 415.523438 594.441406 " fill-opacity="1" fill-rule="nonzero"/><path fill="#505256" d="M 405.949219 387.109375 C 406.816406 389.070312 406.933594 391.386719 406.273438 393.636719 C 405.613281 395.886719 404.261719 397.777344 402.472656 398.960938 C 400.753906 400.097656 398.835938 400.433594 397.066406 399.914062 C 393.324219 398.820312 391.371094 394.214844 392.707031 389.660156 C 393.851562 385.769531 397.027344 383.148438 400.257812 383.148438 C 400.261719 383.148438 400.261719 383.148438 400.265625 383.148438 C 400.816406 383.148438 401.371094 383.222656 401.914062 383.386719 C 403.296875 383.792969 404.476562 384.6875 405.320312 385.960938 C 405.558594 386.316406 405.769531 386.699219 405.949219 387.109375 Z M 414.136719 356.203125 L 412.898438 343.820312 L 409 363.421875 C 409 363.421875 406.296875 375.394531 402.722656 380.722656 C 402.714844 380.71875 402.710938 380.710938 402.703125 380.710938 C 401.898438 380.476562 401.085938 380.363281 400.28125 380.363281 C 395.828125 380.363281 391.527344 383.769531 390.03125 388.875 C 388.261719 394.90625 391.066406 401.058594 396.28125 402.585938 C 397.085938 402.820312 397.90625 402.9375 398.734375 402.9375 C 400.535156 402.9375 402.351562 402.382812 404.007812 401.285156 C 406.347656 399.742188 408.105469 397.304688 408.945312 394.421875 C 409.792969 391.539062 409.632812 388.546875 408.5 385.976562 C 407.835938 384.476562 406.878906 383.222656 405.707031 382.285156 C 406.171875 378.421875 407.386719 372.074219 410.539062 365.886719 C 412.40625 362.21875 414.609375 359.566406 416.300781 357.851562 C 415.339844 357 414.707031 356.578125 414.691406 356.570312 L 414.136719 356.203125 " fill-opacity="1" fill-rule="nonzero"/><path fill="#505256" d="M 423.933594 295.621094 L 422.71875 294.429688 L 417.644531 319.941406 L 420.757812 334.269531 L 423.933594 295.621094 " fill-opacity="1" fill-rule="nonzero"/><path fill="#505256" d="M 437.195312 399.914062 C 435.429688 400.433594 433.503906 400.097656 431.789062 398.960938 C 429.996094 397.777344 428.648438 395.886719 427.988281 393.636719 C 427.328125 391.386719 427.441406 389.070312 428.3125 387.109375 C 428.640625 386.371094 429.066406 385.710938 429.570312 385.15625 C 430.324219 384.308594 431.277344 383.695312 432.347656 383.386719 C 432.894531 383.222656 433.449219 383.148438 434.003906 383.148438 L 434.070312 383.148438 C 437.273438 383.183594 440.421875 385.796875 441.554688 389.660156 C 442.890625 394.214844 440.933594 398.820312 437.195312 399.914062 Z M 417.644531 344.609375 C 416.476562 344.609375 415.53125 343.664062 415.53125 342.496094 C 415.53125 341.332031 416.476562 340.382812 417.644531 340.382812 C 418.8125 340.382812 419.761719 341.332031 419.761719 342.496094 C 419.761719 343.664062 418.8125 344.609375 417.644531 344.609375 Z M 444.230469 388.875 C 442.539062 383.136719 437.316406 379.539062 432.320312 380.527344 C 428.589844 375.359375 425.609375 363.164062 425.609375 363.164062 L 410.679688 294.429688 L 409.484375 295.648438 L 415.453125 355.402344 C 415.453125 355.402344 420.382812 358.636719 424.121094 365.65625 C 427.335938 371.703125 428.671875 377.933594 429.214844 381.804688 C 427.742188 382.773438 426.550781 384.199219 425.765625 385.976562 C 424.625 388.546875 424.46875 391.539062 425.316406 394.421875 C 426.160156 397.304688 427.910156 399.742188 430.253906 401.285156 C 431.910156 402.382812 433.722656 402.9375 435.53125 402.9375 C 436.355469 402.9375 437.175781 402.820312 437.980469 402.585938 C 442.140625 401.367188 444.757812 397.214844 444.757812 392.527344 C 444.757812 391.332031 444.585938 390.101562 444.230469 388.875 " fill-opacity="1" fill-rule="nonzero"/><path fill="#505256" d="M 284.859375 612.464844 L 277.429688 605.035156 L 549.398438 333.0625 L 556.832031 340.492188 L 284.859375 612.464844 " fill-opacity="1" fill-rule="nonzero"/><path fill="#505256" d="M 549.398438 612.464844 L 277.429688 340.492188 L 284.859375 333.0625 L 556.832031 605.035156 L 549.398438 612.464844 " fill-opacity="1" fill-rule="nonzero"/><g clip-path="url(#8909f4be30)"><path fill="#ffffff" d="M 536.125 411.371094 C 543.925781 360.117188 611.21875 324.273438 569.886719 277.847656 C 569.886719 277.847656 590.789062 285.625 589.484375 312.363281 C 589.484375 312.363281 629.3125 265.3125 580.449219 237.425781 C 580.449219 237.425781 581.347656 193.628906 546.488281 183.226562 C 546.488281 183.226562 544.621094 133.519531 505.828125 118.105469 C 505.828125 118.105469 519.359375 132.84375 519.585938 162.167969 C 519.585938 162.167969 509.515625 107.183594 421.433594 110.800781 C 421.433594 110.800781 458.742188 119.027344 474.722656 136.574219 C 474.722656 136.574219 441.726562 136.238281 428.265625 123.8125 C 428.265625 123.8125 436.3125 138.125 450.066406 144.214844 C 411.453125 140.035156 416.464844 92.441406 367.378906 97.679688 C 390.484375 107.992188 392.550781 145.542969 426.128906 157.855469 C 426.128906 157.855469 386.144531 151.585938 373.558594 118.980469 C 373.558594 118.980469 371.671875 150.035156 399.5625 168.84375 C 399.5625 168.84375 327.976562 133.925781 369.0625 75.253906 C 369.0625 75.253906 292.644531 74.914062 305.074219 152.6875 C 305.074219 152.6875 281.925781 126.171875 305.1875 91.65625 C 305.1875 91.65625 234.996094 140.484375 315.1875 202.84375 C 315.1875 202.84375 274.621094 190.191406 267.496094 155.789062 C 267.496094 155.789062 264.4375 178.867188 272.4375 192.953125 C 272.4375 192.953125 239.804688 169.652344 265.898438 118.6875 C 265.898438 118.6875 220.632812 136.351562 218.902344 197.785156 C 217.195312 259.265625 287.902344 261.109375 287.902344 261.109375 C 287.902344 261.109375 267.945312 248.863281 259.875 234.300781 C 259.875 234.300781 289.96875 252.253906 316.402344 248.792969 C 316.402344 248.792969 277.632812 240.570312 259.832031 211.695312 C 259.832031 211.695312 290.511719 242.996094 341.484375 227.515625 C 392.460938 212.054688 438.785156 211.652344 469.6875 231.15625 C 469.6875 231.15625 503.199219 218.730469 543.386719 224.707031 C 543.386719 224.707031 524.347656 222.527344 499.964844 230.234375 C 493.960938 231.941406 487.511719 234.480469 480.792969 238.054688 C 468.519531 244.367188 455.820312 253.46875 444.109375 266.636719 C 444.109375 266.636719 490.074219 255.984375 526.753906 277.398438 C 526.753906 277.398438 493.871094 265.019531 465.933594 271.175781 C 465.933594 271.175781 475.757812 284.007812 482.027344 302.410156 L 406.777344 300.636719 C 406.777344 300.636719 365.242188 282.117188 339.957031 301.375 C 328.832031 308.746094 317.097656 287.289062 304.445312 302.816406 C 299.925781 308.410156 294.441406 344.003906 327.394531 345.6875 C 327.394531 345.6875 323.707031 356.136719 319.527344 357.574219 C 319.527344 357.574219 336.429688 355.214844 335.730469 318.003906 C 335.730469 318.003906 341.101562 313.171875 342.046875 320.363281 C 350.722656 387.507812 412.597656 359.710938 409.027344 316.746094 L 485.894531 317.308594 C 488.613281 332.96875 487.445312 350.746094 476.632812 367.484375 C 476.632812 367.484375 490.476562 352.183594 491.128906 337.734375 C 491.128906 337.734375 503.894531 414.832031 434.691406 386.113281 C 434.691406 386.113281 442.648438 395.4375 456.808594 400.046875 C 456.808594 400.046875 434.242188 399.6875 426.039062 379.394531 C 426.039062 379.394531 427.140625 391.867188 433.140625 399.867188 C 439.144531 407.867188 436.894531 424.246094 419.183594 423.101562 C 419.183594 423.101562 444.019531 432.023438 445.414062 453.300781 C 445.414062 453.300781 441.347656 440.539062 427.972656 435.078125 C 427.972656 435.078125 449.839844 450.941406 439.796875 474.246094 C 439.796875 474.246094 443.347656 445.820312 414.398438 434.15625 C 414.398438 434.15625 423.253906 441.75 428.578125 450.828125 C 428.578125 450.828125 414.890625 430.246094 384.234375 429.324219 C 384.234375 429.324219 409.496094 438.066406 390.550781 471.886719 C 390.550781 471.886719 404.394531 455.617188 402.101562 441.390625 C 402.101562 441.390625 410.148438 471.660156 376.863281 483.613281 C 376.863281 483.613281 395.269531 463.886719 389.742188 446.582031 C 389.742188 446.582031 389.851562 454.222656 387.785156 459.683594 C 387.785156 459.683594 391.269531 441.347656 378.796875 433.683594 C 378.796875 433.683594 393.964844 462.964844 349.21875 459.414062 C 349.21875 459.414062 368.1875 458.3125 374.277344 448.066406 C 374.277344 448.066406 358.253906 449.683594 349.285156 441.347656 C 340.339844 432.941406 321.550781 435.933594 322.605469 451.929688 C 322.605469 451.929688 318.539062 439.730469 328.585938 434.3125 C 328.585938 434.3125 313.324219 422.988281 321.210938 410.269531 C 329.101562 397.617188 344.25 402.449219 351.554688 409.820312 C 358.902344 417.191406 381.246094 430.472656 403.292969 416.15625 C 403.292969 416.15625 393.605469 419.035156 383.019531 416.269531 C 383.019531 416.269531 426.039062 418.785156 419.207031 380.363281 C 419.207031 380.363281 414.890625 409.640625 377.984375 401.933594 C 377.984375 401.933594 395.292969 402.113281 403.765625 393.597656 C 403.765625 393.597656 382.054688 400.855469 364.65625 379.730469 C 364.65625 379.730469 366.75 386.855469 370.929688 392.089844 C 370.929688 392.089844 359.0625 387.621094 357.464844 377.191406 C 357.464844 377.191406 357.332031 359.484375 339.730469 362.476562 C 339.730469 362.476562 350.769531 365.351562 348.003906 373.238281 C 348.003906 373.238281 335.125 364.023438 326 371.734375 C 326 371.734375 328.945312 365.464844 332.246094 364.722656 C 332.246094 364.722656 327.054688 365.867188 322.042969 370.8125 C 316.917969 367.082031 317.480469 361.261719 317.480469 361.261719 C 312.605469 367.261719 318.605469 374.96875 318.605469 374.96875 C 316.941406 377.371094 315.457031 380.429688 314.402344 384.160156 C 314.402344 384.160156 318.199219 379.507812 320.222656 378.292969 C 320.222656 378.292969 320.785156 397.460938 298.714844 393.191406 C 298.714844 393.191406 303.5 399.058594 312.109375 398.765625 C 312.109375 398.765625 300.175781 404.066406 293.566406 394.113281 C 293.566406 394.113281 295.207031 410.855469 314.894531 412.066406 C 314.894531 412.066406 319.007812 462.402344 288.308594 476.558594 C 288.308594 476.558594 304.960938 476.714844 312.761719 461.300781 C 312.761719 461.300781 308.894531 487.882812 287.835938 492.378906 C 287.835938 492.378906 297.523438 496.222656 308.242188 489.953125 C 308.242188 489.953125 284.171875 534.644531 344.585938 565.65625 C 344.585938 565.65625 315.097656 531.207031 334.113281 495.414062 C 334.113281 495.414062 314.582031 550.691406 378.277344 568.015625 C 378.277344 568.015625 397.089844 543.792969 379.851562 512.378906 C 379.851562 512.378906 403.542969 537.746094 386.863281 565.722656 C 386.863281 565.722656 445.617188 551.34375 456.515625 474.425781 C 456.515625 474.425781 455.957031 508.128906 446.46875 525.5 C 446.46875 525.5 507.019531 492.199219 496.589844 422.945312 C 496.589844 422.945312 505.085938 452.851562 499.242188 474.246094 C 499.242188 474.246094 522.6875 448.988281 510.796875 398.832031 C 498.90625 348.722656 506.03125 316.164062 516.910156 306.972656 C 516.910156 306.972656 506.527344 312.027344 502.164062 323.980469 C 509.089844 276.816406 574.402344 283.445312 557.390625 330.5 C 545.140625 364.382812 533.292969 369.597656 536.125 411.371094 " fill-opacity="1" fill-rule="evenodd"/></g><path fill="#ffffff" d="M 546.21875 473.546875 C 546.21875 473.546875 550.464844 496.109375 452.71875 542.578125 C 452.71875 542.578125 440.984375 557.429688 438.265625 574.464844 L 423.09375 575.027344 L 435.726562 568.128906 C 435.726562 568.128906 437.210938 555.363281 445.144531 544.488281 C 446.402344 543.050781 447.640625 541.613281 448.851562 540.0625 C 451.078125 537.746094 453.664062 535.679688 456.695312 533.949219 C 474.878906 523.613281 548.871094 490.289062 540.9375 467.929688 C 540.9375 467.929688 548.847656 442.089844 566.964844 465.683594 L 578.921875 512.78125 L 593.621094 515.5 C 593.621094 515.5 577.976562 579.519531 529.722656 627.429688 C 529.722656 627.429688 574.898438 563.363281 579.4375 521.703125 C 579.4375 521.703125 559.792969 554.441406 521.449219 580.148438 C 521.449219 580.148438 557.03125 546.488281 568.085938 522.738281 C 568.085938 522.738281 549.925781 545.296875 533.003906 553.003906 C 533.003906 553.003906 556.714844 530.554688 567.167969 514.175781 C 567.167969 514.175781 546.421875 534.355469 533.746094 540.355469 C 533.746094 540.355469 550.578125 522.511719 555.230469 515.90625 C 555.230469 515.90625 540.800781 530.105469 527.878906 537.34375 C 527.878906 537.34375 547.566406 518.488281 557.320312 504.265625 C 557.320312 504.265625 535.429688 521.996094 518.730469 531.546875 C 518.730469 531.546875 538.621094 513.140625 547.453125 503.300781 C 547.453125 503.300781 525.203125 519.929688 510.101562 526.535156 C 510.101562 526.535156 548.511719 498.761719 560.535156 476.199219 C 560.535156 476.199219 561.59375 466.492188 552.984375 463.726562 C 544.398438 460.964844 546.21875 473.546875 546.21875 473.546875 Z M 418.171875 587.226562 L 444.449219 586.9375 C 444.449219 586.9375 481.261719 566.058594 502.75 565.542969 C 502.75 565.542969 479.332031 563.363281 459.4375 573.296875 C 459.4375 573.296875 482.902344 552.9375 498.882812 548.464844 C 498.882812 548.464844 466.273438 555.703125 447.910156 573.65625 C 447.910156 573.65625 458.316406 540.175781 507.359375 537.523438 C 507.359375 537.523438 527.675781 594.082031 502.03125 630.371094 C 502.03125 630.371094 470.40625 618.394531 440.445312 594.644531 L 422.082031 596.597656 C 422.082031 596.597656 401.699219 625.652344 370.75 628.078125 C 370.75 628.078125 359.308594 597.070312 360.164062 571.632812 C 360.320312 571.632812 388.347656 574.171875 402.777344 580.105469 C 402.777344 580.105469 392.214844 579.226562 387.695312 579.925781 C 387.695312 579.925781 411.476562 582.441406 418.171875 587.226562 " fill-opacity="1" fill-rule="evenodd"/><g clip-path="url(#eb88e0cd77)"><path fill="#ffffff" d="M 435.773438 870.136719 L 77.574219 249.851562 L 206.898438 249.851562 L 206.898438 289.714844 L 146.550781 289.714844 L 291.160156 540.105469 L 435.773438 790.523438 L 580.382812 540.105469 L 724.992188 289.714844 L 606.207031 289.714844 L 606.207031 249.851562 L 793.96875 249.851562 L 435.773438 870.136719 " fill-opacity="1" fill-rule="evenodd"/></g></svg>